<svg width="14" height="14" fill="none" xmlns="http://www.w3.org/2000/svg"><path d="M7 .333c.368 0 .667.299.667.667v.667a.667.667 0 01-1.334 0V1c0-.368.299-.667.667-.667zm4.714 1.953c.26.26.26.682 0 .943l-.471.471a.667.667 0 11-.943-.943l.471-.471c.26-.26.683-.26.943 0zm-9.428 0c.26-.26.682-.26.943 0l.471.471a.667.667 0 11-.943.943l-.471-.471a.667.667 0 010-.943zM7 4.333a2.667 2.667 0 100 5.334 2.667 2.667 0 000-5.334zM3 7a4 4 0 118 0 4 4 0 01-8 0zM.333 7c0-.368.299-.667.667-.667h.667a.667.667 0 010 1.334H1A.667.667 0 01.333 7zm11.334 0c0-.368.298-.667.666-.667H13a.667.667 0 110 1.334h-.667A.667.667 0 0111.667 7zm-8.91 3.3a.667.667 0 01.943.943l-.471.471a.667.667 0 01-.943-.943l.471-.471zm7.543.943a.667.667 0 11.943-.943l.471.471a.667.667 0 01-.943.943l-.471-.471zm-3.3.424c.368 0 .667.298.667.666V13a.667.667 0 11-1.334 0v-.667c0-.368.299-.666.667-.666z" fill="#fff"/></svg>