<svg width="14" height="12" fill="none" xmlns="http://www.w3.org/2000/svg"><path d="M1.667 2.422c.093-.037.205-.079.335-.12A6.514 6.514 0 014 2c.858 0 1.538.153 1.998.301.13.042.242.084.335.121v7.253A7.879 7.879 0 004 9.333c-.974 0-1.766.166-2.333.342V2.422zM7 1.257a6.071 6.071 0 00-.592-.225A7.845 7.845 0 004 .667c-1.017 0-1.837.18-2.408.365a5.924 5.924 0 00-.852.35l-.053.03-.017.009-.006.003-.002.001-.001.001c-.001 0-.164.097-.001 0A.667.667 0 00.333 2v8.667a.667.667 0 001.006.574l-.003.001h.002l.001-.002.025-.013a4.585 4.585 0 01.638-.26 6.511 6.511 0 011.998-.3c.858 0 1.538.152 1.998.3a4.585 4.585 0 01.638.26 1.11 1.11 0 01.027.015m0 0H6.66v-.001a.667.667 0 00.703-.014 4.585 4.585 0 01.638-.26 6.511 6.511 0 011.998-.3c.858 0 1.539.152 1.998.3a4.587 4.587 0 01.638.26l.025.014a.667.667 0 001.006-.574V2a.667.667 0 00-.327-.573l-.001-.001h-.001l-.002-.002-.006-.003-.017-.01a3.951 3.951 0 00-.238-.12 5.922 5.922 0 00-.667-.259A7.846 7.846 0 0010 .667c-1.017 0-1.836.18-2.408.365A6.071 6.071 0 007 1.257m5.333 1.165v7.253A7.879 7.879 0 0010 9.333c-.974 0-1.766.166-2.333.342V2.422c.093-.037.205-.079.335-.12A6.514 6.514 0 0110 2c.858 0 1.539.153 1.998.301.13.042.242.084.335.121zm.328.152l.002.002-.002-.002zm0 8.667h.002-.002" fill="#fff"/></svg>