<svg width="16" height="14" fill="none" xmlns="http://www.w3.org/2000/svg"><path d="M15.063 8.031H9.357a2.092 2.092 0 00-2.714 0H.938A.939.939 0 000 8.97v1.062c0 .517.42.938.938.938h4.054l-.782 1.56H4a.469.469 0 000 .938h8a.469.469 0 100-.938h-.21l-.781-1.562h4.053c.517 0 .938-.42.938-.938V8.97a.939.939 0 00-.938-.938zm-14.126 2V8.97h5.055l-.532 1.06H.938zm4.321 2.5l1.714-3.427c.425-.85 1.634-.843 2.056 0l1.714 3.427H5.258zm9.805-2.5H10.54l-.531-1.062h5.053v1.062zM1 6.969h5c.259 0 .469-.21.469-.469V6a2.953 2.953 0 00-1.3-2.457A1.971 1.971 0 003.5.531a1.971 1.971 0 00-1.669 3.012A2.953 2.953 0 00.531 6v.5c0 .259.21.469.469.469zm2.5-5.5a1.032 1.032 0 010 2.062 1.032 1.032 0 010-2.062zm-.968 2.744a1.96 1.96 0 001.936 0c.633.342 1.063.998 1.063 1.818H1.47c0-.817.427-1.475 1.063-1.818zm7.718 2.756h5c.259 0 .469-.21.469-.469V6a2.953 2.953 0 00-1.3-2.457A1.971 1.971 0 0012.75.531 1.971 1.971 0 0010.78 2.5c0 .383.11.74.3 1.043A2.953 2.953 0 009.781 6v.5c0 .259.21.469.469.469zm2.5-5.5a1.032 1.032 0 010 2.062 1.032 1.032 0 010-2.062zm-.968 2.744a1.96 1.96 0 001.936 0c.633.342 1.063.998 1.063 1.818H10.72c0-.817.427-1.475 1.063-1.818z" fill="#fff"/><path d="M8 9.281a.469.469 0 100 .937.469.469 0 000-.937z" fill="#fff"/></svg>