<svg width="16" height="16" fill="none" xmlns="http://www.w3.org/2000/svg"><path d="M15.448 8.058a.599.599 0 00-.037-.034l-4.204-3.58a3.29 3.29 0 00-2.132-.784h-.01a3.268 3.268 0 00-2.314.963l-.568.567a.628.628 0 01-.875.008.606.606 0 01-.183-.436.665.665 0 01.206-.488l1.23-1.313a5.333 5.333 0 013.66-1.675l4.727 3.854a.625.625 0 10.79-.968l-4.906-4a.626.626 0 00-.395-.14c-1.176 0-2.325.32-3.325.907A6.548 6.548 0 003.782.03a.625.625 0 00-.441.183L.152 3.402a.625.625 0 00.884.884l3-2.999a5.3 5.3 0 011.959.477 6.54 6.54 0 00-.346.343L4.425 3.412a1.922 1.922 0 00-.55 1.362 1.865 1.865 0 001.883 1.848c.495-.004.96-.199 1.31-.549l.566-.567a2.025 2.025 0 011.434-.597h.007c.484 0 .953.173 1.322.487l4.181 3.56a.532.532 0 01-.765.737l-.128-.128a.625.625 0 00-.884.883l.128.129c.038.037.077.073.118.107a.62.62 0 00.059.07.532.532 0 01-.752.75l-.004-.004-.208-.206a.625.625 0 00-.883.884l.142.143a.632.632 0 01.18.423.507.507 0 01-.135.376c-.195.196-.534.176-.755-.045a.614.614 0 00-.036-.034l-.094-.08a.625.625 0 00-.847.918.55.55 0 01.164.384.505.505 0 01-.148.366.54.54 0 01-.763-.011l-.088-.088c.255-.65.12-1.42-.404-1.945a1.848 1.848 0 00-.832-.483 1.78 1.78 0 00-1.611-2.029 1.754 1.754 0 00-.517-1.11A1.773 1.773 0 004.4 8.448a1.773 1.773 0 00-.515-1.115 1.783 1.783 0 00-2.515-.005l-.873.843-.008.008c-.335.336-.52.783-.52 1.26 0 .476.185.924.52 1.259.266.266.595.43.939.492-.016.476.157.957.52 1.32a1.708 1.708 0 001.245.5 1.764 1.764 0 001.757 1.532c.039 0 .077-.002.115-.005a1.819 1.819 0 001.787 1.494c.453 0 .906-.169 1.256-.506.349.337.8.506 1.25.506a1.768 1.768 0 001.755-1.528 1.707 1.707 0 001.712-1.597 1.776 1.776 0 001.684-1.838c.354-.064.68-.232.939-.491a1.783 1.783 0 000-2.52zM2.132 9.807l-.008.007c-.1.1-.233.154-.375.154a.527.527 0 01-.53-.53.53.53 0 01.15-.372l.873-.842.008-.008a.53.53 0 01.375-.154.528.528 0 01.422.852c-.016.015-.033.03-.048.046l-.642.629-.225.218zM3.568 11.6c-.219.202-.548.214-.737.025a.532.532 0 01-.002-.75l.4-.392.648-.625.008-.007.049-.052a.532.532 0 01.697.047.486.486 0 01.004.709l-1.067 1.046zm1.773 1.527l-.002.002a.539.539 0 01-.76.01.539.539 0 01.008-.76l.916-.906.002-.002c.1-.1.233-.155.376-.155a.532.532 0 01.377.905l-.917.906zm2.25 1.136a.19.19 0 00-.008.008l-.337.349a.563.563 0 01-.792-.004.58.58 0 01-.17-.406.544.544 0 01.158-.395l.375-.375c.1-.1.23-.15.362-.15.146 0 .295.06.412.177.22.22.22.576 0 .796z" fill="#fff"/></svg>