<svg width="16" height="16" viewBox="0 0 16 16" fill="none" xmlns="http://www.w3.org/2000/svg">
<path d="M15.4479 8.05777C15.4362 8.04593 15.4239 8.0347 15.4112 8.02383L11.2071 4.44411C10.6126 3.93788 9.85598 3.65956 9.07546 3.65956C9.07167 3.65956 9.06789 3.65956 9.0641 3.65956C8.1902 3.66261 7.36854 4.00453 6.7505 4.62258L6.18348 5.18959C5.94435 5.42873 5.55189 5.43264 5.30848 5.19826C5.19166 5.08596 5.12647 4.93093 5.12489 4.7621C5.12318 4.58486 5.19325 4.41213 5.31703 4.28822C5.32179 4.28346 5.32655 4.27858 5.33119 4.2737L6.5608 2.96131C7.51173 1.94642 8.83522 1.3429 10.2205 1.28565L14.9483 5.1404C15.2157 5.35854 15.6095 5.3185 15.8275 5.05104C16.0457 4.78347 16.0056 4.38979 15.7382 4.17165L10.8323 0.171753C10.7207 0.0809328 10.5813 0.03125 10.4374 0.03125C9.26149 0.03125 8.11195 0.351686 7.11183 0.938602C6.10292 0.344362 4.95765 0.03125 3.7826 0.03125C3.61683 0.03125 3.45789 0.0970462 3.3407 0.214112L0.151978 3.4015C-0.0921632 3.64564 -0.0922853 4.04128 0.151734 4.28542C0.273804 4.40761 0.433717 4.46864 0.593751 4.46864C0.753664 4.46864 0.913576 4.40761 1.03552 4.28566L4.03541 1.28724C4.71571 1.31934 5.37941 1.48194 5.99488 1.76417C5.87562 1.87379 5.76002 1.9878 5.64869 2.10658L4.42518 3.41249C4.07056 3.7715 3.87012 4.26711 3.87501 4.77407C3.87977 5.28127 4.08106 5.75185 4.44166 6.0989C4.79713 6.44094 5.2649 6.62673 5.75843 6.62246C6.25282 6.61807 6.71766 6.42312 7.06727 6.07339L7.63441 5.50637C8.01735 5.12331 8.52675 4.9114 9.06838 4.90944H9.07546C9.55922 4.90944 10.0282 5.08205 10.3967 5.39577L14.5782 8.95621C14.771 9.16422 14.7664 9.49064 14.564 9.69291C14.4646 9.7924 14.3312 9.84708 14.1884 9.84708C14.0456 9.84708 13.9121 9.7924 13.8128 9.69291L13.6846 9.56461C13.4405 9.32059 13.0447 9.32047 12.8007 9.56461C12.5567 9.80863 12.5565 10.2044 12.8007 10.4485L12.929 10.5767C12.9667 10.6145 13.0061 10.6502 13.0467 10.684C13.0646 10.7082 13.0838 10.7316 13.1056 10.7535C13.3128 10.9606 13.3128 11.2977 13.1056 11.5048C12.8986 11.712 12.5615 11.712 12.3544 11.5048C12.3528 11.5032 12.3511 11.5015 12.3495 11.4999L12.1424 11.2942C11.8982 11.0502 11.5026 11.0502 11.2586 11.2944C11.0144 11.5384 11.0144 11.9341 11.2586 12.1781L11.4013 12.3208L11.4014 12.321C11.5095 12.4291 11.5749 12.5833 11.5803 12.7438C11.5833 12.8313 11.5698 12.9964 11.4462 13.12C11.2506 13.3157 10.912 13.2955 10.6915 13.075C10.6798 13.0633 10.6677 13.0521 10.655 13.0413L10.5613 12.9614C10.3061 12.7437 9.92434 12.7665 9.6968 13.013C9.46913 13.2594 9.4767 13.6417 9.71389 13.879C9.81813 13.9832 9.87648 14.1197 9.87819 14.2631C9.87978 14.4022 9.82717 14.5322 9.73012 14.6292C9.52297 14.8364 9.18178 14.8321 8.96742 14.6179L8.87905 14.5302C9.13429 13.8794 8.99977 13.1097 8.47463 12.5845V12.5844C8.23952 12.3494 7.95302 12.1847 7.64259 12.1022C7.71974 11.5654 7.55214 10.9998 7.14003 10.5876C6.83119 10.2787 6.43617 10.1077 6.03163 10.0735C6.00111 9.67142 5.82923 9.27689 5.51503 8.96268C5.20436 8.65201 4.80653 8.48075 4.39954 8.44803C4.36683 8.04105 4.19556 7.64322 3.8849 7.33255C3.1919 6.63955 2.06507 6.63809 1.37024 7.32815L0.496827 8.17142C0.494264 8.17398 0.491578 8.17655 0.489015 8.17911C0.153565 8.51456 -0.03125 8.96195 -0.03125 9.43863C-0.03125 9.9152 0.153565 10.3626 0.489015 10.698C0.754518 10.9637 1.08386 11.1272 1.42798 11.1897C1.41187 11.6659 1.58472 12.1474 1.94739 12.5101C2.27088 12.8335 2.70252 13.0103 3.16651 13.0103C3.1753 13.0103 3.18421 13.0102 3.193 13.0101C3.24354 13.3815 3.41053 13.7393 3.69471 14.0234C4.04029 14.369 4.49464 14.5416 4.9502 14.5416C4.98853 14.5416 5.02674 14.5399 5.06507 14.5374C5.13124 14.9012 5.30482 15.2358 5.57032 15.5013C5.92372 15.8546 6.38771 16.0312 6.85194 16.0312C7.30507 16.0312 7.75819 15.8621 8.10829 15.5252C8.4568 15.8621 8.90798 16.0312 9.35842 16.0312C9.81398 16.0312 10.2685 15.8586 10.6139 15.5131C10.8904 15.2365 11.063 14.8847 11.1129 14.5032C11.5579 14.5025 11.9972 14.3367 12.33 14.0038C12.6223 13.7115 12.7941 13.3274 12.8252 12.9063C13.266 12.8833 13.6764 12.7017 13.9895 12.3886C14.3522 12.0259 14.5251 11.5444 14.5089 11.068C14.8632 11.0043 15.1889 10.8357 15.4479 10.5767C16.1424 9.88224 16.1424 8.75223 15.4479 8.05777ZM2.13196 9.80656C2.1294 9.80912 2.12671 9.81168 2.12415 9.81425C2.02478 9.91373 1.89136 9.96842 1.74854 9.96842C1.60572 9.96842 1.47229 9.91373 1.37293 9.81425C1.27344 9.71476 1.21875 9.58146 1.21875 9.43863C1.21875 9.29728 1.27234 9.16532 1.36975 9.0662L2.24195 8.22403C2.24463 8.22147 2.2472 8.2189 2.24976 8.21634C2.34925 8.11697 2.48267 8.06216 2.62549 8.06216C2.76819 8.06216 2.90162 8.11697 3.0011 8.21634C3.10047 8.31583 3.15528 8.44925 3.15528 8.59207C3.15528 8.71073 3.11707 8.82267 3.04713 8.91434C3.03077 8.92936 3.01441 8.94449 2.99854 8.96036L2.35743 9.5889L2.13196 9.80656ZM3.56788 11.6015C3.34925 11.8033 3.01978 11.8147 2.8313 11.6263C2.62476 11.4197 2.62415 11.0839 2.82947 10.8766L3.22974 10.4842L3.87708 9.85929C3.87977 9.85673 3.88233 9.85416 3.8849 9.8516C3.90174 9.83475 3.91773 9.81766 3.9336 9.80033C4.14173 9.64139 4.44105 9.65641 4.63123 9.84659C4.83705 10.0524 4.83827 10.3503 4.63453 10.5558L3.56788 11.6015ZM5.34144 13.128C5.34071 13.1287 5.33985 13.1296 5.33912 13.1303C5.12684 13.3426 4.78565 13.3467 4.5785 13.1396C4.37171 12.9328 4.37562 12.5923 4.58692 12.3799L5.50257 11.4738C5.50343 11.4731 5.50416 11.4722 5.50489 11.4715C5.60438 11.372 5.7378 11.3173 5.88063 11.3173C6.02333 11.3173 6.15675 11.372 6.25624 11.4715C6.46303 11.6783 6.46339 12.0146 6.25721 12.2218L5.34144 13.128ZM7.59083 14.2638C7.58815 14.2664 7.58546 14.2691 7.5829 14.2719L7.24635 14.6207C7.02687 14.8367 6.67238 14.8356 6.45424 14.6175C6.34645 14.5097 6.28627 14.3652 6.28468 14.2106C6.28309 14.0593 6.33888 13.9194 6.44166 13.8165L6.81666 13.4415C6.91676 13.3414 7.04664 13.2918 7.17946 13.2918C7.32472 13.2918 7.47353 13.3511 7.59071 13.4683C7.81007 13.6877 7.81007 14.0445 7.59083 14.2638Z" fill="white"/>
</svg>
