<svg width="16" height="14" viewBox="0 0 16 14" fill="none" xmlns="http://www.w3.org/2000/svg">
<path d="M15.0625 8.03113H9.35747C8.58466 7.36772 7.42334 7.36088 6.64253 8.03113H0.9375C0.420563 8.03113 0 8.4517 0 8.96863V10.0311C0 10.5481 0.420563 10.9686 0.9375 10.9686H4.99153L4.21028 12.5311H4C3.74113 12.5311 3.53125 12.741 3.53125 12.9999C3.53125 13.2588 3.74113 13.4686 4 13.4686H12C12.2589 13.4686 12.4688 13.2588 12.4688 12.9999C12.4688 12.741 12.2589 12.5311 12 12.5311H11.7897L11.0085 10.9686H15.0625C15.5794 10.9686 16 10.5481 16 10.0311V8.96863C16 8.4517 15.5794 8.03113 15.0625 8.03113ZM0.9375 10.0311V8.96863H5.99153L5.46028 10.0311H0.9375ZM5.25844 12.5311L6.97203 9.10395C7.39659 8.25488 8.60647 8.26101 9.02797 9.10395L10.7416 12.5311H5.25844ZM15.0625 10.0311H10.5397L10.0085 8.96863H15.0625V10.0311Z" fill="white"/>
<path d="M1 6.96875H6C6.25887 6.96875 6.46875 6.75887 6.46875 6.5V6C6.46875 4.99672 5.97388 4.08744 5.16853 3.54316C5.35847 3.24047 5.46875 2.88297 5.46875 2.5C5.46875 1.41444 4.58556 0.53125 3.5 0.53125C2.41444 0.53125 1.53125 1.41444 1.53125 2.5C1.53125 2.88297 1.64153 3.24047 1.83147 3.54316C1.02612 4.08744 0.53125 4.99672 0.53125 6V6.5C0.53125 6.75887 0.741125 6.96875 1 6.96875ZM3.5 1.46875C4.06862 1.46875 4.53125 1.93138 4.53125 2.5C4.53125 3.06862 4.06862 3.53125 3.5 3.53125C2.93138 3.53125 2.46875 3.06862 2.46875 2.5C2.46875 1.93138 2.93138 1.46875 3.5 1.46875ZM2.53209 4.21338C3.13269 4.554 3.86713 4.55409 4.46791 4.21338C5.10091 4.555 5.53125 5.21128 5.53125 6.03125H1.46875C1.46875 5.21425 1.89644 4.55644 2.53209 4.21338Z" fill="white"/>
<path d="M10.25 6.96875H15.25C15.5089 6.96875 15.7188 6.75887 15.7188 6.5V6C15.7188 4.99672 15.2239 4.08744 14.4185 3.54316C14.6085 3.24047 14.7188 2.88297 14.7188 2.5C14.7188 1.41444 13.8356 0.53125 12.75 0.53125C11.6644 0.53125 10.7812 1.41444 10.7812 2.5C10.7812 2.88297 10.8915 3.24047 11.0815 3.54316C10.2761 4.08744 9.78125 4.99672 9.78125 6V6.5C9.78125 6.75887 9.99112 6.96875 10.25 6.96875ZM12.75 1.46875C13.3186 1.46875 13.7812 1.93138 13.7812 2.5C13.7812 3.06862 13.3186 3.53125 12.75 3.53125C12.1814 3.53125 11.7188 3.06862 11.7188 2.5C11.7188 1.93138 12.1814 1.46875 12.75 1.46875ZM11.7821 4.21338C12.3827 4.554 13.1171 4.55409 13.7179 4.21338C14.3509 4.555 14.7812 5.21128 14.7812 6.03125H10.7188C10.7188 5.21425 11.1464 4.55644 11.7821 4.21338Z" fill="white"/>
<path d="M8.00064 9.28125C7.7388 9.28125 7.53174 9.49366 7.53174 9.75C7.53174 10.0089 7.74177 10.2188 8.00064 10.2188C8.25951 10.2188 8.46938 10.0089 8.46938 9.75C8.46938 9.49112 8.25951 9.28125 8.00064 9.28125Z" fill="white"/>
</svg>
