<svg width="14" height="12" viewBox="0 0 14 12" fill="none" xmlns="http://www.w3.org/2000/svg">
<path d="M1.66659 2.42241C1.75983 2.38472 1.87192 2.34309 2.00184 2.3011C2.46134 2.15257 3.14193 2.00008 3.99992 2.00008C4.85791 2.00008 5.5385 2.15257 5.998 2.3011C6.12792 2.34309 6.24001 2.38472 6.33325 2.42241V9.67535C5.76577 9.49909 4.97336 9.33341 3.99992 9.33341C3.02648 9.33341 2.23406 9.49909 1.66659 9.67535V2.42241ZM6.99992 1.25693C6.84944 1.19021 6.65094 1.11089 6.40809 1.0324C5.83634 0.847589 5.01693 0.666748 3.99992 0.666748C2.98291 0.666748 2.1635 0.847589 1.59175 1.0324C1.30589 1.12479 1.08149 1.21832 0.924513 1.29112C0.845992 1.32754 0.784218 1.35883 0.739931 1.38228C0.717784 1.39401 0.699994 1.40378 0.686654 1.41127L0.669987 1.42075L0.664173 1.42413L0.6619 1.42546L0.660922 1.42604C0.659612 1.42681 0.496654 1.52338 0.66005 1.42655C0.457474 1.5466 0.333252 1.76461 0.333252 2.00008V10.6667C0.333252 10.9063 0.461753 11.1274 0.669869 11.246C0.877851 11.3645 1.13339 11.3624 1.33939 11.2405C1.33757 11.2415 1.33643 11.2422 1.33643 11.2422L1.33731 11.2417L1.33835 11.2411L1.33939 11.2405C1.34345 11.2382 1.35163 11.2338 1.36391 11.2273C1.38847 11.2143 1.42924 11.1935 1.48548 11.1674C1.59804 11.1152 1.77207 11.042 2.00184 10.9678C2.46134 10.8192 3.14193 10.6667 3.99992 10.6667C4.85791 10.6667 5.5385 10.8192 5.998 10.9678C6.22777 11.042 6.4018 11.1152 6.51436 11.1674C6.5706 11.1935 6.61137 11.2143 6.63593 11.2273C6.6482 11.2338 6.65641 11.2383 6.66047 11.2406C6.6623 11.2416 6.66341 11.2422 6.66341 11.2422M6.66341 11.2422L6.66253 11.2417L6.66149 11.2411L6.66047 11.2406C6.86977 11.3642 7.13016 11.3643 7.33939 11.2405C7.34345 11.2382 7.35163 11.2338 7.36391 11.2273C7.38847 11.2143 7.42924 11.1935 7.48548 11.1674C7.59804 11.1152 7.77207 11.042 8.00184 10.9678C8.46134 10.8192 9.14193 10.6667 9.99992 10.6667C10.8579 10.6667 11.5385 10.8192 11.998 10.9678C12.2278 11.042 12.4018 11.1152 12.5144 11.1674C12.5706 11.1935 12.6114 11.2143 12.6359 11.2273C12.6482 11.2338 12.6564 11.2383 12.6605 11.2406L12.6612 11.2409C12.8671 11.3624 13.1222 11.3643 13.33 11.246C13.5381 11.1274 13.6666 10.9063 13.6666 10.6667V2.00008C13.6666 1.76461 13.5424 1.5466 13.3398 1.42655L13.3389 1.42604L13.3379 1.42546L13.3357 1.42413L13.3299 1.42075L13.3132 1.41127C13.2998 1.40378 13.2821 1.39401 13.2599 1.38228C13.2156 1.35883 13.1538 1.32754 13.0753 1.29112C12.9184 1.21832 12.6939 1.12479 12.4081 1.0324C11.8363 0.847589 11.0169 0.666748 9.99992 0.666748C8.98291 0.666748 8.1635 0.847589 7.59175 1.0324C7.3489 1.11089 7.1504 1.19021 6.99992 1.25693M12.3333 2.42241V9.67535C11.7658 9.49909 10.9734 9.33341 9.99992 9.33341C9.02648 9.33341 8.23406 9.49909 7.66659 9.67535V2.42241C7.75983 2.38472 7.87192 2.34309 8.00184 2.3011C8.46134 2.15257 9.14193 2.00008 9.99992 2.00008C10.8579 2.00008 11.5385 2.15257 11.998 2.3011C12.1279 2.34309 12.24 2.38472 12.3333 2.42241ZM12.6605 2.57392C12.6623 2.57494 12.6634 2.57558 12.6634 2.57558L12.6625 2.57507L12.6605 2.57392ZM12.6605 11.2406L12.6627 11.2418L12.6612 11.2409" fill="white"/>
</svg>
