<svg width="14" height="14" viewBox="0 0 14 14" fill="none" xmlns="http://www.w3.org/2000/svg">
<path d="M6.99992 0.333252C7.36811 0.333252 7.66659 0.631729 7.66659 0.999919V1.66659C7.66659 2.03478 7.36811 2.33325 6.99992 2.33325C6.63173 2.33325 6.33325 2.03478 6.33325 1.66659V0.999919C6.33325 0.631729 6.63173 0.333252 6.99992 0.333252ZM11.714 2.28587C11.9743 2.54622 11.9743 2.96833 11.714 3.22868L11.2426 3.70008C10.9822 3.96043 10.5601 3.96043 10.2998 3.70008C10.0394 3.43973 10.0394 3.01762 10.2998 2.75727L10.7712 2.28587C11.0315 2.02552 11.4536 2.02552 11.714 2.28587ZM2.28587 2.28587C2.54622 2.02552 2.96833 2.02552 3.22868 2.28587L3.70008 2.75727C3.96043 3.01762 3.96043 3.43973 3.70008 3.70008C3.43973 3.96043 3.01762 3.96043 2.75727 3.70008L2.28587 3.22868C2.02552 2.96833 2.02552 2.54622 2.28587 2.28587ZM6.99992 4.33325C5.52716 4.33325 4.33325 5.52716 4.33325 6.99992C4.33325 8.47268 5.52716 9.66659 6.99992 9.66659C8.47268 9.66659 9.66659 8.47268 9.66659 6.99992C9.66659 5.52716 8.47268 4.33325 6.99992 4.33325ZM2.99992 6.99992C2.99992 4.79078 4.79078 2.99992 6.99992 2.99992C9.20906 2.99992 10.9999 4.79078 10.9999 6.99992C10.9999 9.20906 9.20906 10.9999 6.99992 10.9999C4.79078 10.9999 2.99992 9.20906 2.99992 6.99992ZM0.333252 6.99992C0.333252 6.63173 0.631729 6.33325 0.999919 6.33325H1.66659C2.03478 6.33325 2.33325 6.63173 2.33325 6.99992C2.33325 7.36811 2.03478 7.66659 1.66659 7.66659H0.999919C0.631729 7.66659 0.333252 7.36811 0.333252 6.99992ZM11.6666 6.99992C11.6666 6.63173 11.9651 6.33325 12.3333 6.33325H12.9999C13.3681 6.33325 13.6666 6.63173 13.6666 6.99992C13.6666 7.36811 13.3681 7.66659 12.9999 7.66659H12.3333C11.9651 7.66659 11.6666 7.36811 11.6666 6.99992ZM2.75727 10.2997C3.01762 10.0394 3.43973 10.0394 3.70008 10.2997C3.96043 10.5601 3.96043 10.9822 3.70008 11.2426L3.22868 11.714C2.96833 11.9743 2.54622 11.9743 2.28587 11.714C2.02552 11.4536 2.02552 11.0315 2.28587 10.7711L2.75727 10.2997ZM10.2998 11.2426C10.0394 10.9822 10.0394 10.5601 10.2998 10.2997C10.5601 10.0394 10.9822 10.0394 11.2426 10.2997L11.714 10.7711C11.9743 11.0315 11.9743 11.4536 11.714 11.714C11.4536 11.9743 11.0315 11.9743 10.7712 11.714L10.2998 11.2426ZM6.99992 11.6666C7.36811 11.6666 7.66659 11.9651 7.66659 12.3333V12.9999C7.66659 13.3681 7.36811 13.6666 6.99992 13.6666C6.63173 13.6666 6.33325 13.3681 6.33325 12.9999V12.3333C6.33325 11.9651 6.63173 11.6666 6.99992 11.6666Z" fill="white"/>
</svg>
