<svg preserveAspectRatio="none" viewBox="0 0 174 37" fill="none" xmlns="http://www.w3.org/2000/svg"><path d="M174.162 24.062v-13.04c.018 0-2.707.608-4.715 1.13-4.409 1.148-9.331 2.377-10.047 2.56-.651.165-1.297.339-1.922.507-1.652.444-3.211.863-4.785 1.132-2.578.44-4.678.891-6.61 1.42-.49.133-.975.28-1.445.422-1.061.323-2.062.626-3.006.738a21.324 21.324 0 00-2.95.55c.703-2.427 1.432-4.892 2.212-7.285.553-1.693.504-3.361-.139-4.825-.114-.27-.994-2.69-1.957-5.385l-.343-.959a1.477 1.477 0 00-1.346-.992l-.992-.026c-.06-.001-.391-.009-.91-.009-1.035 0-3.054.033-4.959.256l-.021.003c-.937.123-1.535.226-1.971.301-.603.104-.762.131-1.257.135h-.092c-.284 0-.564-.005-.846-.011-.31-.007-.623-.014-.939-.014-.513 0-.945.018-1.359.055-1.382.124-2.797.235-4.167.342-4.482.35-9.113.71-13.693 1.626-.703.14-1.407.279-2.112.417-3.249.635-6.61 1.292-9.917 2.243-.566.163-1.108.341-1.632.513-.958.314-1.862.611-2.723.754-1.137.188-2.216.453-3.26.709l-.434.106c-2.354.574-4.692 1.256-6.953 1.916-3.435 1.002-6.976 2.036-10.48 2.651-1.734.305-3.25.668-4.632 1.11-1.668.531-3.416 1.002-5.107 1.458-2.12.572-4.305 1.16-6.46 1.897-.045.01-.153.03-.22.043-.15.028-.31.06-.481.1-.347.082-.695.16-1.042.239-.66.149-1.332.3-2.01.477.477-2.27 1.001-4.753 1.538-7.27.572-2.684-.749-5.267-3.14-6.14-.404-.148-.833-.547-1.377-1.051l-.143-.133c-1.129-1.044-2.383-1.573-3.73-1.573-.347 0-.705.036-1.062.107-.953.188-1.93.36-2.875.528-.982.174-1.997.354-3.016.556-1.805.356-3.6.778-5.336 1.186-2.05.481-4.169.98-6.243 1.352a1.361 1.361 0 00-.115.016c-.91.161-1.76.387-2.581.605-.995.265-1.932.513-2.816.602-1.018.102-2.622.505-4.479.97-1.924.483-4.1 1.029-5.493 1.201-.815.101-1.532.33-2.108.514-.395.127-.767.245-1.04.28-1.179.154-5.834 1.24-8.79 1.946v13.04c1.89-.49 7.743-2.067 8.334-2.293.498-.191.91-.258 1.43-.343.35-.057.748-.122 1.199-.233 1.477-.363 3.002-.738 4.479-.99 1.638-.28 4.689-.975 7.918-1.71 2.394-.543 4.862-1.105 6.555-1.448.044-.005.087-.012.129-.02.746-.15 1.481-.325 2.191-.493a68.41 68.41 0 011.795-.41c.482-.101.965-.2 1.448-.298 1.272-.26 2.573-.524 3.88-.84a679.51 679.51 0 00-1.393 5.083c-.39 1.434-.83 3.06-1.268 4.637-.574 2.063-.382 3.893.57 5.445l.22.63c.03.083 8.905-2.59 8.945-2.516.003.243-8.78 3.183-8.754 3.26.235.674.501 1.438.836 2.196.073.167.136.315.192.447l.02.048c.355.833 1.186 2.786 3.386 2.786.515 0 1.077-.104 1.77-.327.156-.05.325-.104.52-.163 2.966-.894 5.9-1.935 8.738-2.941l.07-.025c1.173-.416 2.386-.846 3.578-1.257 1.4-.482 2.814-.98 4.181-1.463 3.6-1.269 7.32-2.579 11.002-3.678.717-.214 1.44-.44 2.139-.658l.066-.02c2.011-.629 4.089-1.277 6.118-1.678 2.25-.445 4.655-.985 6.993-1.915 1.401-.558 2.962-1.05 4.913-1.552 1.322-.34 2.738-.756 4.138-1.497.324-.172.78-.279 1.224-.368a885.6 885.6 0 002.569-.52l.04-.009c1.589-.323 3.232-.658 4.844-.97 6.148-1.195 12.498-2.428 18.937-3.3a94.763 94.763 0 017.517-.72 430.798 430.798 0 00-3.944 14.787l-.22.893a1.545 1.545 0 00.455 1.515l.673.608c1.68 1.52 3.483 2.47 5.337 3.388.709.352 1.433.53 2.151.53a4.71 4.71 0 001.891-.41c1.455-.637 2.973-1.144 4.581-1.68l1.029-.345c1.1-.368 2.45-.82 3.678-1.826a69.9 69.9 0 011.467-.309 45.676 45.676 0 002.646-.594c.817-.217 1.666-.381 2.565-.556 1.052-.205 2.14-.416 3.25-.726.276-.077.539-.162.829-.256.337-.11.758-.248.941-.261 1.164-.086 2.213-.307 3.227-.521l.06-.013c.265-.056.53-.112.795-.164a79.333 79.333 0 001.964-.42l.046-.01c.594-.133 1.732-.46 3.05-.84 1.688-.485 4.242-1.284 4.936-1.376 2.024-.27 5.643-1.289 5.652-1.291z" fill="#ED1C24"/></svg>