<svg width="86" height="80" fill="none" xmlns="http://www.w3.org/2000/svg"><path d="M37.028 3.561v14.351a3.523 3.523 0 01-3.524 3.523c-6.944 0-10.721 7.122-11.245 21.18h11.245a3.525 3.525 0 013.524 3.523v30.3a3.523 3.523 0 01-3.524 3.523H3.524A3.523 3.523 0 010 76.44v-30.3c0-6.74.678-12.923 2.016-18.382C3.388 22.16 5.493 17.266 8.273 13.21c2.86-4.167 6.437-7.438 10.633-9.716C23.13 1.2 28.043.038 33.506.038a3.523 3.523 0 013.522 3.523zm45.448 17.874A3.525 3.525 0 0086 17.912V3.562A3.524 3.524 0 0082.476.038c-5.46 0-10.374 1.163-14.597 3.455-4.197 2.278-7.776 5.549-10.636 9.717-2.779 4.055-4.884 8.95-6.256 14.548-1.337 5.461-2.015 11.645-2.015 18.38V76.44a3.524 3.524 0 003.524 3.523h29.98a3.524 3.524 0 003.522-3.523v-30.3a3.524 3.524 0 00-3.523-3.525H71.391c.516-14.056 4.238-21.178 11.085-21.178z" fill="#fff" fill-opacity=".1"/></svg>