<svg preserveAspectRatio="none" viewBox="0 0 174 37" fill="none" xmlns="http://www.w3.org/2000/svg">
<path d="M174.162 24.0617V11.022C174.18 11.0216 171.455 11.6301 169.447 12.1526C165.038 13.2996 160.116 14.5289 159.4 14.7112C158.749 14.8771 158.103 15.0507 157.478 15.2187C155.826 15.6626 154.267 16.082 152.693 16.3506C150.115 16.7908 148.015 17.2421 146.083 17.7703C145.593 17.9041 145.108 18.0513 144.638 18.1934C143.577 18.5156 142.576 18.8193 141.632 18.9307C140.587 19.0541 139.608 19.2361 138.682 19.4806C139.385 17.0541 140.114 14.5895 140.894 12.1961C141.447 10.5031 141.398 8.83463 140.755 7.3705C140.641 7.10089 139.761 4.68007 138.798 1.98629L138.455 1.02727C138.246 0.443554 137.713 0.0501758 137.109 0.0347886L136.117 0.00936616C136.057 0.00769363 135.726 0 135.207 0C134.172 0 132.153 0.0331161 130.248 0.255897C130.241 0.2569 130.234 0.257569 130.227 0.258573C129.29 0.38234 128.692 0.485033 128.256 0.559962C127.653 0.663659 127.494 0.691089 126.999 0.695103L126.907 0.695437C126.623 0.695437 126.343 0.689751 126.061 0.683729C125.751 0.677039 125.438 0.670349 125.122 0.670349C124.609 0.670349 124.177 0.687744 123.763 0.725208C122.381 0.84931 120.966 0.960031 119.596 1.06674C115.114 1.4163 110.483 1.77756 105.903 2.69344C105.2 2.83393 104.496 2.97175 103.791 3.10956C100.542 3.74512 97.1819 4.40243 93.8744 5.35343C93.3081 5.51633 92.7662 5.69429 92.2421 5.86623C91.2845 6.18033 90.3801 6.47703 89.5193 6.61953C88.3819 6.80786 87.3028 7.07279 86.2599 7.32902L85.8254 7.43539C83.4709 8.00907 81.1333 8.69112 78.8723 9.35077C75.4372 10.3533 71.8958 11.3866 68.3928 12.0024C66.6579 12.3075 65.1424 12.6701 63.7595 13.1113C62.0924 13.6431 60.3442 14.1145 58.6534 14.5701C56.533 15.1417 54.348 15.7308 52.1926 16.4667C52.1477 16.4777 52.0399 16.4978 51.9737 16.5102C51.8234 16.5383 51.6623 16.5691 51.4918 16.6095C51.1453 16.6915 50.7973 16.7701 50.4498 16.8487C49.7893 16.9979 49.1182 17.1491 48.4398 17.3264C48.9175 15.0554 49.4413 12.5734 49.9777 10.0552C50.5495 7.3715 49.2292 4.78945 46.8383 3.91572C46.4344 3.76787 46.0048 3.36948 45.4606 2.86471L45.3177 2.73191C44.189 1.68792 42.935 1.1594 41.5881 1.1594C41.2409 1.1594 40.8834 1.19519 40.5256 1.26577C39.5729 1.45376 38.5958 1.6267 37.6509 1.79429C36.6693 1.96823 35.6542 2.1482 34.6353 2.34957C32.8299 2.70615 31.0349 3.12796 29.299 3.53572C27.2487 4.01741 25.13 4.51516 23.0557 4.8878C23.0177 4.89148 22.9794 4.89649 22.9411 4.90352C22.0312 5.06542 21.1814 5.29121 20.3596 5.50931C19.3647 5.77357 18.4279 6.0221 17.5443 6.11108C16.5257 6.21344 14.9223 6.61552 13.0655 7.08115C11.141 7.56384 8.96442 8.10975 7.57237 8.28236C6.75701 8.38338 6.04005 8.61252 5.46368 8.79649C5.06915 8.9226 4.69736 9.04135 4.42362 9.07681C3.24524 9.22968 -1.40986 10.3168 -4.36572 11.022V24.0617C-2.47621 23.5726 3.37675 21.9954 3.96772 21.769C4.46648 21.5776 4.87757 21.5107 5.39841 21.4258C5.74878 21.3686 6.1459 21.3037 6.5966 21.1929C8.07373 20.83 9.59891 20.4554 11.076 20.2025C12.7136 19.9222 15.7646 19.2284 18.9945 18.4938C21.388 17.9496 23.8561 17.3883 25.5492 17.0454C25.5933 17.0401 25.6359 17.0334 25.6777 17.0247C26.4243 16.8748 27.1591 16.7002 27.8692 16.5316C28.4664 16.3898 29.0765 16.2446 29.6639 16.1215C30.1458 16.0208 30.629 15.9221 31.1125 15.8238C32.3841 15.5649 33.6855 15.3 34.9918 14.9832C34.5132 16.6955 34.0508 18.4005 33.5988 20.0673C33.2098 21.5014 32.7692 23.127 32.3305 24.7042C31.7567 26.7665 31.9489 28.5972 32.9013 30.1487L33.1218 30.7795C33.1507 30.8622 42.0258 28.1895 42.0664 28.2634C42.0693 28.5062 33.2851 31.4459 33.3118 31.5225C33.5465 32.1965 33.8131 32.9608 34.1476 33.7195C34.221 33.8858 34.2843 34.0339 34.3405 34.1664L34.3606 34.2139C34.7148 35.0465 35.5464 37 37.7464 37C38.261 37 38.8231 36.8963 39.5167 36.6735C39.6722 36.6237 39.8414 36.5692 40.0366 36.5103C43.0019 35.6158 45.9363 34.5752 48.774 33.5686L48.8444 33.5436C50.0173 33.1278 51.2298 32.6979 52.4224 32.2868C53.8223 31.8045 55.2358 31.3064 56.6031 30.8244C60.2039 29.5552 63.9231 28.245 67.6048 27.1461C68.3224 26.9321 69.0452 26.7063 69.744 26.4882L69.8102 26.4674C71.8212 25.8392 73.8987 25.1906 75.9278 24.7899C78.1781 24.3447 80.5826 23.8048 82.9212 22.8748C84.322 22.3172 85.8832 21.8242 87.8341 21.3231C89.1557 20.9835 90.5717 20.5674 91.9719 19.8255C92.2963 19.6539 92.7519 19.5475 93.1957 19.4582C94.052 19.2863 94.9083 19.112 95.7649 18.9374L95.8045 18.9293C97.3936 18.6059 99.037 18.2714 100.649 17.9586C106.797 16.7641 113.147 15.5308 119.586 14.6587C122.127 14.3145 124.647 14.0733 127.103 13.9388C125.662 18.9912 124.337 23.9563 123.159 28.7257L122.939 29.6195C122.802 30.1724 122.978 30.7575 123.394 31.1338L124.067 31.7422C125.747 33.2622 127.55 34.2122 129.404 35.1305C130.113 35.4817 130.837 35.6596 131.555 35.6596C132.187 35.6596 132.823 35.5218 133.446 35.2502C134.901 34.6133 136.419 34.1065 138.027 33.57L139.056 33.2251C140.156 32.8568 141.506 32.4049 142.734 31.3994C143.208 31.2917 143.694 31.193 144.201 31.09C145.057 30.9157 145.942 30.7357 146.847 30.4959C147.664 30.2794 148.513 30.1145 149.412 29.9399C150.464 29.7352 151.552 29.5238 152.662 29.214C152.938 29.1368 153.201 29.0521 153.491 28.9575C153.828 28.8471 154.249 28.7099 154.432 28.6966C155.596 28.6113 156.645 28.3898 157.659 28.1757L157.719 28.163C157.984 28.1072 158.249 28.0513 158.514 27.9991C159.182 27.8677 159.841 27.7211 160.478 27.579L160.524 27.5686C161.118 27.4362 162.256 27.1087 163.574 26.7293C165.262 26.2436 167.816 25.4455 168.51 25.3528C170.534 25.0826 174.153 24.064 174.162 24.0617Z" fill="#ED1C24"/>
</svg>
