<svg width="86" height="80" viewBox="0 0 86 80" fill="none" xmlns="http://www.w3.org/2000/svg">
<path d="M37.0282 3.56133V17.912C37.0282 19.8583 35.4504 21.4352 33.5042 21.4352C26.5602 21.4352 22.7829 28.5573 22.2594 42.6141H33.5042C35.4504 42.6141 37.0282 44.1926 37.0282 46.1381V76.4388C37.0282 78.3841 35.4504 79.9613 33.5042 79.9613H3.52324C1.57623 79.9613 0 78.3828 0 76.4388V46.1381C0 39.3996 0.678484 33.2158 2.01599 27.7567C3.38774 22.159 5.49341 17.2648 8.27263 13.2094C11.1324 9.04168 14.7096 5.77121 18.9057 3.49284C23.1301 1.20067 28.0425 0.0380859 33.5054 0.0380859C35.4504 0.0380859 37.0282 1.61506 37.0282 3.56133ZM82.4758 21.4355C84.4211 21.4355 86 19.857 86 17.9122V3.56157C86 1.6153 84.4213 0.0383322 82.4758 0.0383322C77.0151 0.0383322 72.1019 1.20117 67.879 3.49308C63.6822 5.77145 60.103 9.04192 57.2428 13.2097C54.4645 17.265 52.3588 22.1595 50.9869 27.7584C49.6501 33.2193 48.9716 39.403 48.9716 46.1383V76.439C48.9716 78.3843 50.5498 79.9615 52.4956 79.9615H82.4755C84.4208 79.9615 85.9983 78.3831 85.9983 76.439V46.1381C85.9983 44.1928 84.4211 42.6141 82.4755 42.6141H71.3912C71.9068 28.5576 75.6289 21.4355 82.4758 21.4355Z" fill="white" fill-opacity="0.1"/>
</svg>
