<?xml version="1.0" standalone="no"?>
<!DOCTYPE svg PUBLIC "-//W3C//DTD SVG 20010904//EN"
 "http://www.w3.org/TR/2001/REC-SVG-20010904/DTD/svg10.dtd">
<svg version="1.0" xmlns="http://www.w3.org/2000/svg"
 width="114.000000pt" height="114.000000pt" viewBox="0 0 114.000000 114.000000"
 preserveAspectRatio="xMidYMid meet">
<metadata>
Created by potrace 1.14, written by Peter Selinger 2001-2017
</metadata>
<g transform="translate(0.000000,114.000000) scale(0.100000,-0.100000)"
fill="#000000" stroke="none">
<path d="M505 1112 c-3 -3 -24 -7 -47 -9 -110 -9 -276 -122 -349 -238 -29 -46
-58 -115 -67 -160 -12 -61 -10 -208 3 -251 7 -25 14 -48 14 -52 1 -4 15 -35
32 -69 53 -109 193 -227 304 -258 17 -4 37 -11 45 -13 23 -9 221 -7 254 2 98
25 212 98 276 176 43 52 72 100 62 100 -4 0 -2 4 4 8 11 8 39 81 48 127 10 49
10 146 1 205 -5 30 -8 59 -7 63 2 5 -2 6 -8 2 -5 -3 -10 2 -10 12 0 26 -44
111 -75 147 -14 16 -25 33 -25 38 0 4 -7 8 -15 8 -8 0 -15 7 -15 15 0 8 -3 15
-8 15 -4 0 -19 11 -34 25 -14 13 -38 27 -52 31 -14 3 -24 9 -21 13 5 9 -101
47 -155 57 -49 9 -148 12 -155 6z m158 -66 c168 -38 317 -180 359 -344 15 -58
15 -162 0 -222 -7 -30 -14 -63 -15 -72 -1 -10 -4 -18 -7 -18 -4 0 -16 -20 -29
-45 -26 -53 -117 -147 -160 -166 -17 -8 -31 -18 -31 -22 0 -5 -4 -5 -10 -2 -5
3 -10 2 -10 -2 0 -5 -29 -17 -64 -27 -63 -18 -200 -19 -264 -3 -39 10 -126 54
-149 77 -13 11 -23 18 -23 15 0 -12 -63 62 -97 113 -57 87 -75 160 -71 277 4
88 9 108 38 170 18 38 38 75 44 81 6 6 26 30 45 53 19 22 41 41 48 41 7 0 13
4 13 9 0 14 139 81 173 83 15 1 27 5 27 9 0 7 144 3 183 -5z"/>
<path d="M462 988 c-7 -7 -12 -8 -12 -4 0 4 -19 -6 -42 -23 -22 -17 -46 -28
-51 -24 -6 3 -7 1 -3 -5 4 -7 2 -12 -4 -12 -15 0 -71 -60 -65 -69 2 -5 -11
-21 -30 -35 -19 -15 -35 -33 -35 -40 0 -8 -11 -17 -25 -20 -30 -8 -47 -37 -50
-86 -1 -21 -5 -42 -9 -48 -3 -6 -2 -13 3 -16 5 -4 8 -14 6 -24 -7 -47 59 -134
113 -148 19 -5 22 -13 22 -55 0 -27 5 -49 10 -49 6 0 10 -7 10 -15 0 -9 7 -18
15 -21 8 -4 12 -10 9 -15 -3 -5 -2 -9 3 -9 4 0 24 -14 43 -31 19 -17 46 -35
60 -41 32 -14 140 -19 140 -7 0 5 7 9 16 9 22 0 85 39 104 64 8 11 20 34 26
51 9 24 18 31 47 36 54 9 123 47 162 90 35 39 70 133 57 153 -7 11 -8 16 -11
36 0 5 -12 20 -26 33 -23 21 -25 26 -14 53 24 59 16 103 -25 137 -29 24 -83
47 -125 52 -19 3 -37 8 -40 12 -12 17 -62 44 -71 38 -6 -3 -10 -1 -10 4 0 7
-23 11 -54 11 -35 0 -58 5 -66 15 -15 18 -61 20 -78 3z m38 -20 c0 -7 -18 -23
-41 -36 -23 -13 -46 -37 -53 -53 -7 -16 -16 -26 -20 -22 -5 5 -7 -11 -4 -34 3
-39 2 -42 -17 -37 -27 9 -55 39 -55 61 0 18 115 103 139 103 6 0 11 5 11 11 0
5 4 8 9 4 5 -3 12 -1 16 5 8 14 15 13 15 -2z m172 -36 c64 -30 108 -78 108
-116 0 -60 -12 -94 -44 -128 -48 -51 -169 -139 -176 -128 -16 25 4 82 44 128
62 70 76 97 76 144 0 43 -18 80 -50 105 -22 18 -1 15 42 -5z m-52 -19 c17 -16
32 -41 34 -58 2 -16 1 -25 -1 -18 -18 49 -131 61 -176 19 -14 -13 -28 -22 -30
-19 -5 5 -21 -48 -18 -60 1 -5 -3 -6 -9 -2 -16 10 -11 62 10 102 11 21 20 34
20 30 0 -5 12 1 28 12 41 31 104 28 142 -6z m-15 -63 c7 0 16 -12 19 -26 8
-30 0 -46 -10 -20 -3 9 -15 16 -26 16 -10 0 -17 4 -14 9 3 4 -2 8 -12 8 -38 0
-55 3 -49 9 11 11 72 21 75 12 2 -4 10 -8 17 -8z m225 -12 c0 -6 3 -9 6 -5 6
5 15 0 49 -30 7 -7 19 -13 25 -13 6 0 9 -4 5 -9 -3 -5 -1 -12 4 -16 7 -3 4
-19 -6 -39 -11 -25 -24 -35 -44 -38 -24 -4 -29 -1 -29 17 0 11 -6 29 -14 40
-19 28 -25 105 -9 105 7 0 13 -5 13 -12z m-507 -68 c6 -14 11 -32 12 -41 4
-33 51 -115 85 -147 49 -45 147 -71 193 -49 12 5 17 3 17 -6 0 -23 -158 -38
-228 -22 -37 9 -132 94 -132 119 0 9 -4 16 -9 16 -10 0 -24 49 -26 93 0 15 3
27 7 27 4 0 8 4 8 10 0 5 8 19 17 30 20 22 38 13 56 -30z m231 31 c16 -18 16
-20 -7 -45 -13 -14 -37 -29 -54 -32 -24 -5 -31 -2 -41 20 -7 16 -8 26 -2 26 6
0 10 8 10 18 0 26 9 32 45 32 19 0 39 -8 49 -19z m52 -27 c-3 -8 -2 -12 4 -9
23 14 8 -31 -17 -53 -29 -24 -73 -27 -81 -4 -2 7 0 11 5 10 12 -4 54 28 46 35
-3 4 1 7 10 7 10 0 17 7 17 15 0 8 5 15 11 15 6 0 8 -7 5 -16z m-178 -63 c20
-22 52 -43 70 -48 17 -4 32 -11 32 -15 0 -5 0 -24 0 -43 0 -32 -2 -35 -30 -35
-16 0 -30 5 -30 10 0 6 -7 10 -15 10 -8 0 -28 20 -45 45 -17 25 -28 45 -25 45
3 0 1 9 -5 21 -11 20 -7 49 5 49 4 0 23 -18 43 -39z m-205 -27 c2 -26 9 -49
15 -53 5 -3 12 -16 16 -28 4 -13 12 -23 17 -23 5 0 9 -8 9 -18 0 -10 11 -40
24 -65 l23 -47 -27 0 c-19 0 -38 11 -59 35 -30 35 -35 48 -31 92 1 12 -4 32
-10 44 -13 23 -16 81 -5 98 13 22 23 10 28 -35z m592 -32 c-2 -24 -8 -49 -14
-56 -6 -7 -7 -17 -3 -21 4 -5 2 -5 -5 -2 -6 4 -17 2 -25 -5 -15 -15 -58 -20
-58 -7 0 4 -13 6 -30 4 -41 -5 -38 7 9 38 54 36 110 96 112 119 0 7 4 4 9 -7
4 -11 6 -39 5 -63z m126 -13 c24 -24 24 -54 1 -80 -11 -10 -25 -32 -33 -47 -8
-15 -18 -30 -24 -34 -5 -4 -7 -8 -3 -8 4 0 0 -10 -10 -21 -26 -33 -102 -78
-119 -72 -8 3 -19 0 -24 -8 -7 -12 -10 -12 -18 -1 -4 8 -12 14 -17 14 -13 0
-41 17 -29 18 6 0 3 5 -5 10 -13 8 -12 10 3 10 37 0 100 51 112 91 4 13 21 40
36 60 16 20 29 48 29 61 0 14 3 28 6 31 12 12 75 -4 95 -24z m-216 -109 c14
-22 -26 -69 -80 -94 -71 -33 -197 -40 -239 -12 -36 23 -66 58 -66 75 0 10 3
12 8 5 18 -28 184 -54 199 -31 2 4 19 7 37 7 22 0 43 10 66 30 34 30 64 38 75
20z m-375 -100 c0 -5 6 -10 14 -10 7 0 19 -6 25 -14 23 -28 112 -37 184 -19
47 12 77 9 77 -7 0 -5 9 -12 20 -15 11 -3 20 -13 20 -21 0 -8 5 -14 10 -14 15
0 -21 -35 -45 -44 -11 -4 -22 -7 -24 -6 -2 1 -7 -3 -11 -10 -4 -6 -17 -12 -28
-13 -12 -1 -22 -5 -22 -10 0 -4 -4 -6 -9 -2 -5 3 -12 1 -15 -4 -10 -16 -57 -2
-126 37 -36 20 -74 41 -85 47 -27 14 -43 78 -25 99 14 18 40 21 40 6z"/>
</g>
</svg>
